<?xml version="1.0" encoding="utf-8"?>
<!-- Generator: Adobe Illustrator 25.2.0, SVG Export Plug-In . SVG Version: 6.00 Build 0)  -->
<svg version="1.1" id="Layer_1" xmlns="http://www.w3.org/2000/svg" xmlns:xlink="http://www.w3.org/1999/xlink" x="0px" y="0px"
	 viewBox="0 0 1920 1080" style="enable-background:new 0 0 1920 1080;" xml:space="preserve">
<style type="text/css">
	.st0{fill:none;}
	.st1{fill:#2FACE2;stroke:#000000;stroke-width:10;stroke-miterlimit:10;}
	.st2{font-family:'MyriadPro-Regular';}
	.st3{font-size:12.7007px;}
</style>
<rect x="1056.76" y="1363.46" transform="matrix(0.7071 -0.7071 0.7071 0.7071 -667.0523 1176.6742)" class="st0" width="60.16" height="60.16"/>
<rect x="971.68" y="1193.3" transform="matrix(0.7071 -0.7071 0.7071 0.7071 -571.6498 1066.6763)" class="st0" width="60.16" height="60.16"/>
<rect x="1099.31" y="1320.92" transform="matrix(0.7071 -0.7071 0.7071 0.7071 -624.512 1194.2949)" class="st0" width="60.16" height="60.16"/>
<rect x="1141.85" y="1278.38" transform="matrix(0.7071 -0.7071 0.7071 0.7071 -581.9717 1211.9185)" class="st0" width="60.16" height="60.16"/>
<rect x="1269.47" y="1150.76" transform="matrix(0.7071 -0.7071 0.7071 0.7071 -454.3504 1264.7809)" class="st0" width="60.16" height="60.16"/>
<rect x="1226.93" y="1193.3" transform="matrix(0.7071 -0.7071 0.7071 0.7071 -496.8909 1247.1573)" class="st0" width="60.16" height="60.16"/>
<polygon class="st0" points="1341.8,1096.05 1299.55,1138.3 1342.09,1180.84 1384.63,1138.3 1342.38,1096.05 "/>
<rect x="886.6" y="1448.54" transform="matrix(0.7071 -0.7071 0.7071 0.7071 -777.053 1081.2727)" class="st0" width="60.16" height="60.16"/>
<rect x="844.06" y="1406" transform="matrix(0.7071 -0.7071 0.7071 0.7071 -759.4322 1038.7323)" class="st0" width="60.16" height="60.16"/>
<rect x="1014.22" y="1406" transform="matrix(0.7071 -0.7071 0.7071 0.7071 -709.5927 1159.0533)" class="st0" width="60.16" height="60.16"/>
<rect x="971.68" y="1448.54" transform="matrix(0.7071 -0.7071 0.7071 0.7071 -752.1333 1141.4338)" class="st0" width="60.16" height="60.16"/>
<rect x="929.14" y="1491.08" transform="matrix(0.7071 -0.7071 0.7071 0.7071 -794.6741 1123.8145)" class="st0" width="60.16" height="60.16"/>
<polygon class="st0" points="661.73,1096.05 661.15,1096.05 618.9,1138.3 661.44,1180.84 703.98,1138.3 "/>
<polygon class="st0" points="1384.63,1138.3 1426.88,1096.05 1342.38,1096.05 "/>
<rect x="673.9" y="1150.76" transform="matrix(0.7071 -0.7071 0.7071 0.7071 -628.788 843.652)" class="st0" width="60.16" height="60.16"/>
<rect x="758.98" y="1235.84" transform="matrix(0.7071 -0.7071 0.7071 0.7071 -664.0286 928.7285)" class="st0" width="60.16" height="60.16"/>
<polygon class="st0" points="576.65,1096.05 618.9,1138.3 661.15,1096.05 "/>
<rect x="801.52" y="1363.46" transform="matrix(0.7071 -0.7071 0.7071 0.7071 -741.8108 996.1895)" class="st0" width="60.16" height="60.16"/>
<rect x="801.52" y="1278.38" transform="matrix(0.7071 -0.7071 0.7071 0.7071 -681.6499 971.2711)" class="st0" width="60.16" height="60.16"/>
<rect x="716.44" y="1193.3" transform="matrix(0.7071 -0.7071 0.7071 0.7071 -646.4083 886.1904)" class="st0" width="60.16" height="60.16"/>
<polygon class="st0" points="1001.47,1096.05 959.22,1138.3 1001.76,1180.84 1044.3,1138.3 1002.05,1096.05 "/>
<polygon class="st0" points="1044.3,1138.3 1086.56,1096.05 1002.05,1096.05 "/>
<polygon class="st0" points="831.89,1096.05 874.14,1138.3 916.39,1096.05 "/>
<rect x="929.14" y="1150.76" transform="matrix(0.7071 -0.7071 0.7071 0.7071 -554.0287 1024.1323)" class="st0" width="60.16" height="60.16"/>
<polygon class="st0" points="916.97,1096.05 916.39,1096.05 874.14,1138.3 916.68,1180.84 959.22,1138.3 "/>
<rect x="886.6" y="1363.46" transform="matrix(0.7071 -0.7071 0.7071 0.7071 -716.891 1056.3494)" class="st0" width="60.16" height="60.16"/>
<polygon class="st0" points="1299.55,1138.3 1341.8,1096.05 1257.3,1096.05 "/>
<polygon class="st0" points="1129.39,1138.3 1171.64,1096.05 1087.13,1096.05 "/>
<polygon class="st0" points="1086.56,1096.05 1044.3,1138.3 1086.85,1180.84 1129.39,1138.3 1087.13,1096.05 "/>
<polygon class="st0" points="1256.72,1096.05 1214.47,1138.3 1257.01,1180.84 1299.55,1138.3 1257.3,1096.05 "/>
<rect x="1099.3" y="1235.84" transform="matrix(0.7071 -0.7071 0.7071 0.7071 -564.3507 1169.3728)" class="st0" width="60.16" height="60.16"/>
<rect x="1184.39" y="1150.76" transform="matrix(0.7071 -0.7071 0.7071 0.7071 -479.2701 1204.6144)" class="st0" width="60.16" height="60.16"/>
<rect x="1141.85" y="1193.3" transform="matrix(0.7071 -0.7071 0.7071 0.7071 -521.8105 1186.9988)" class="st0" width="60.16" height="60.16"/>
<rect x="758.98" y="1320.92" transform="matrix(0.7071 -0.7071 0.7071 0.7071 -724.1906 953.6514)" class="st0" width="60.16" height="60.16"/>
<rect x="886.6" y="1193.3" transform="matrix(0.7071 -0.7071 0.7071 0.7071 -596.5692 1006.5127)" class="st0" width="60.16" height="60.16"/>
<rect x="929.14" y="1235.84" transform="matrix(0.7071 -0.7071 0.7071 0.7071 -614.1899 1049.0531)" class="st0" width="60.16" height="60.16"/>
<rect x="844.06" y="1150.76" transform="matrix(0.7071 -0.7071 0.7071 0.7071 -578.9485 963.9734)" class="st0" width="60.16" height="60.16"/>
<polygon class="st0" points="746.81,1096.05 789.06,1138.3 831.31,1096.05 "/>
<polygon class="st0" points="831.89,1096.05 831.31,1096.05 789.06,1138.3 831.6,1180.84 874.14,1138.3 "/>
<rect x="1014.22" y="1150.76" transform="matrix(0.7071 -0.7071 0.7071 0.7071 -529.1093 1084.2959)" class="st0" width="60.16" height="60.16"/>
<polygon class="st0" points="491.57,1096.05 533.82,1138.3 576.07,1096.05 "/>
<rect x="631.36" y="1193.3" transform="matrix(0.7071 -0.7071 0.7071 0.7071 -671.3276 826.0282)" class="st0" width="60.16" height="60.16"/>
<polygon class="st0" points="576.65,1096.05 576.07,1096.05 533.82,1138.3 576.36,1180.84 618.9,1138.3 "/>
<rect x="588.82" y="1150.76" transform="matrix(0.7071 -0.7071 0.7071 0.7071 -653.7074 783.4897)" class="st0" width="60.16" height="60.16"/>
<rect x="716.44" y="1278.38" transform="matrix(0.7071 -0.7071 0.7071 0.7071 -706.5698 911.111)" class="st0" width="60.16" height="60.16"/>
<rect x="673.9" y="1235.84" transform="matrix(0.7071 -0.7071 0.7071 0.7071 -688.9484 868.5685)" class="st0" width="60.16" height="60.16"/>
<rect x="971.68" y="1278.38" transform="matrix(0.7071 -0.7071 0.7071 0.7071 -631.8107 1091.5935)" class="st0" width="60.16" height="60.16"/>
<rect x="1014.22" y="1320.92" transform="matrix(0.7071 -0.7071 0.7071 0.7071 -649.4319 1134.1364)" class="st0" width="60.16" height="60.16"/>
<rect x="971.68" y="1363.46" transform="matrix(0.7071 -0.7071 0.7071 0.7071 -691.9723 1116.5156)" class="st0" width="60.16" height="60.16"/>
<rect x="1056.76" y="1278.38" transform="matrix(0.7071 -0.7071 0.7071 0.7071 -606.8912 1151.7546)" class="st0" width="60.16" height="60.16"/>
<rect x="844.06" y="1320.92" transform="matrix(0.7071 -0.7071 0.7071 0.7071 -699.2712 1013.8138)" class="st0" width="60.16" height="60.16"/>
<rect x="929.14" y="1406" transform="matrix(0.7071 -0.7071 0.7071 0.7071 -734.5123 1098.8922)" class="st0" width="60.16" height="60.16"/>
<rect x="1184.39" y="1235.84" transform="matrix(0.7071 -0.7071 0.7071 0.7071 -539.4313 1229.5365)" class="st0" width="60.16" height="60.16"/>
<rect x="1014.22" y="1491.08" transform="matrix(0.7071 -0.7071 0.7071 0.7071 -769.7541 1183.9742)" class="st0" width="60.16" height="60.16"/>
<rect x="631.36" y="1278.38" transform="matrix(0.7071 -0.7071 0.7071 0.7071 -731.4891 850.9487)" class="st0" width="60.16" height="60.16"/>
<rect x="971.68" y="1533.62" transform="matrix(0.7071 -0.7071 0.7071 0.7071 -812.2939 1166.3507)" class="st0" width="60.16" height="60.16"/>
<rect x="1141.85" y="1363.46" transform="matrix(0.7071 -0.7071 0.7071 0.7071 -642.133 1236.8381)" class="st0" width="60.16" height="60.16"/>
<rect x="1184.39" y="1320.92" transform="matrix(0.7071 -0.7071 0.7071 0.7071 -599.5924 1254.4562)" class="st0" width="60.16" height="60.16"/>
<rect x="1099.3" y="1406" transform="matrix(0.7071 -0.7071 0.7071 0.7071 -684.6727 1219.2118)" class="st0" width="60.16" height="60.16"/>
<rect x="929.14" y="1576.16" transform="matrix(0.7071 -0.7071 0.7071 0.7071 -854.8342 1148.73)" class="st0" width="60.16" height="60.16"/>
<rect x="716.44" y="1363.46" transform="matrix(0.7071 -0.7071 0.7071 0.7071 -766.7303 936.0283)" class="st0" width="60.16" height="60.16"/>
<rect x="1269.47" y="1235.84" transform="matrix(0.7071 -0.7071 0.7071 0.7071 -514.5117 1289.6978)" class="st0" width="60.16" height="60.16"/>
<rect x="673.9" y="1320.92" transform="matrix(0.7071 -0.7071 0.7071 0.7071 -749.1102 893.4902)" class="st0" width="60.16" height="60.16"/>
<rect x="886.6" y="1533.62" transform="matrix(0.7071 -0.7071 0.7071 0.7071 -837.2134 1106.1896)" class="st0" width="60.16" height="60.16"/>
<rect x="758.98" y="1406" transform="matrix(0.7071 -0.7071 0.7071 0.7071 -784.3511 978.5687)" class="st0" width="60.16" height="60.16"/>
<rect x="844.06" y="1491.08" transform="matrix(0.7071 -0.7071 0.7071 0.7071 -819.5927 1063.6493)" class="st0" width="60.16" height="60.16"/>
<rect x="801.52" y="1448.54" transform="matrix(0.7071 -0.7071 0.7071 0.7071 -801.9726 1021.1115)" class="st0" width="60.16" height="60.16"/>
<rect x="1056.76" y="1448.54" transform="matrix(0.7071 -0.7071 0.7071 0.7071 -727.2131 1201.5909)" class="st0" width="60.16" height="60.16"/>
<rect x="1056.76" y="1193.3" transform="matrix(0.7071 -0.7071 0.7071 0.7071 -546.73 1126.8351)" class="st0" width="60.16" height="60.16"/>
<rect x="1099.3" y="1150.76" transform="matrix(0.7071 -0.7071 0.7071 0.7071 -504.1897 1144.4558)" class="st0" width="60.16" height="60.16"/>
<polygon class="st0" points="1214.47,1138.3 1256.72,1096.05 1172.22,1096.05 "/>
<polygon class="st0" points="1171.64,1096.05 1129.39,1138.3 1171.93,1180.84 1214.47,1138.3 1172.22,1096.05 "/>
<rect x="1014.22" y="1235.84" transform="matrix(0.7071 -0.7071 0.7071 0.7071 -589.2704 1109.2142)" class="st0" width="60.16" height="60.16"/>
<polygon class="st0" points="1426.88,1096.05 1384.63,1138.3 1427.17,1180.84 1469.71,1138.3 1427.46,1096.05 "/>
<rect x="929.14" y="1320.92" transform="matrix(0.7071 -0.7071 0.7071 0.7071 -674.3513 1073.9739)" class="st0" width="60.16" height="60.16"/>
<rect x="1354.55" y="1150.76" transform="matrix(0.7071 -0.7071 0.7071 0.7071 -429.4309 1324.9393)" class="st0" width="60.16" height="60.16"/>
<polygon class="st0" points="1469.71,1138.3 1511.96,1096.05 1427.46,1096.05 "/>
<rect x="1312.01" y="1193.3" transform="matrix(0.7071 -0.7071 0.7071 0.7071 -471.9713 1307.3186)" class="st0" width="60.16" height="60.16"/>
<rect x="886.6" y="1278.38" transform="matrix(0.7071 -0.7071 0.7071 0.7071 -656.7301 1031.431)" class="st0" width="60.16" height="60.16"/>
<rect x="844.06" y="1235.84" transform="matrix(0.7071 -0.7071 0.7071 0.7071 -639.1093 988.8907)" class="st0" width="60.16" height="60.16"/>
<rect x="1226.93" y="1278.38" transform="matrix(0.7071 -0.7071 0.7071 0.7071 -557.052 1272.0741)" class="st0" width="60.16" height="60.16"/>
<rect x="758.98" y="1150.76" transform="matrix(0.7071 -0.7071 0.7071 0.7071 -603.8682 903.8122)" class="st0" width="60.16" height="60.16"/>
<polygon class="st0" points="746.81,1096.05 746.23,1096.05 703.98,1138.3 746.52,1180.84 789.06,1138.3 "/>
<polygon class="st0" points="661.73,1096.05 703.98,1138.3 746.23,1096.05 "/>
<rect x="588.82" y="1235.84" transform="matrix(0.7071 -0.7071 0.7071 0.7071 -713.8676 808.4064)" class="st0" width="60.16" height="60.16"/>
<polygon class="st0" points="959.22,1138.3 1001.47,1096.05 916.97,1096.05 "/>
<rect x="801.52" y="1193.3" transform="matrix(0.7071 -0.7071 0.7071 0.7071 -621.489 946.3526)" class="st0" width="60.16" height="60.16"/>
<polygon class="st0" points="491.57,1096.05 490.99,1096.05 448.74,1138.3 491.28,1180.84 533.82,1138.3 "/>
<rect x="546.28" y="1193.3" transform="matrix(0.7071 -0.7071 0.7071 0.7071 -696.2474 765.868)" class="st0" width="60.16" height="60.16"/>
<rect x="503.74" y="1150.76" transform="matrix(0.7071 -0.7071 0.7071 0.7071 -678.627 723.3286)" class="st0" width="60.16" height="60.16"/>
<polygon class="st0" points="406.49,1096.05 448.74,1138.3 490.99,1096.05 "/>
<rect x="886.6" y="682.81" transform="matrix(0.7071 -0.7071 0.7071 0.7071 -235.6021 856.9961)" class="st1" width="60.16" height="60.16"/>
<rect x="929.14" y="640.27" transform="matrix(0.7071 -0.7071 0.7071 0.7071 -193.0617 874.6169)" class="st1" width="60.16" height="60.16"/>
<rect x="1184.39" y="980.6" transform="matrix(0.7071 -0.7071 0.7071 0.7071 -358.9478 1154.7766)" class="st1" width="60.16" height="60.16"/>
<polygon class="st1" points="1086.85,1095.76 1087.13,1096.05 1171.64,1096.05 1171.93,1095.76 1129.39,1053.22 "/>
<rect x="971.68" y="682.81" transform="matrix(0.7071 -0.7071 0.7071 0.7071 -210.6826 917.1564)" class="st1" width="60.16" height="60.16"/>
<rect x="1141.85" y="852.98" transform="matrix(0.7071 -0.7071 0.7071 0.7071 -281.1658 1087.3179)" class="st1" width="60.16" height="60.16"/>
<rect x="1099.3" y="810.44" transform="matrix(0.7071 -0.7071 0.7071 0.7071 -263.5452 1044.7765)" class="st1" width="60.16" height="60.16"/>
<rect x="1184.39" y="895.52" transform="matrix(0.7071 -0.7071 0.7071 0.7071 -298.7864 1129.8594)" class="st1" width="60.16" height="60.16"/>
<rect x="1226.93" y="938.06" transform="matrix(0.7071 -0.7071 0.7071 0.7071 -316.4075 1172.3975)" class="st1" width="60.16" height="60.16"/>
<rect x="1014.22" y="725.35" transform="matrix(0.7071 -0.7071 0.7071 0.7071 -228.3033 959.6978)" class="st1" width="60.16" height="60.16"/>
<rect x="1056.76" y="767.89" transform="matrix(0.7071 -0.7071 0.7071 0.7071 -245.9241 1002.2382)" class="st1" width="60.16" height="60.16"/>
<rect x="631.36" y="938.06" transform="matrix(0.7071 -0.7071 0.7071 0.7071 -490.8444 751.2704)" class="st1" width="60.16" height="60.16"/>
<rect x="588.82" y="980.6" transform="matrix(0.7071 -0.7071 0.7071 0.7071 -533.3849 733.6505)" class="st1" width="60.16" height="60.16"/>
<polygon class="st1" points="746.52,1095.76 703.98,1053.22 661.44,1095.76 661.73,1096.05 746.23,1096.05 "/>
<rect x="673.9" y="895.52" transform="matrix(0.7071 -0.7071 0.7071 0.7071 -448.3039 768.8904)" class="st1" width="60.16" height="60.16"/>
<rect x="801.52" y="767.89" transform="matrix(0.7071 -0.7071 0.7071 0.7071 -320.683 821.7527)" class="st1" width="60.16" height="60.16"/>
<rect x="758.98" y="810.44" transform="matrix(0.7071 -0.7071 0.7071 0.7071 -363.2233 804.1337)" class="st1" width="60.16" height="60.16"/>
<rect x="844.06" y="725.35" transform="matrix(0.7071 -0.7071 0.7071 0.7071 -278.1425 839.3753)" class="st1" width="60.16" height="60.16"/>
<rect x="716.44" y="852.98" transform="matrix(0.7071 -0.7071 0.7071 0.7071 -405.7637 786.512)" class="st1" width="60.16" height="60.16"/>
<rect x="1014.22" y="980.6" transform="matrix(0.7071 -0.7071 0.7071 0.7071 -408.7869 1034.4567)" class="st1" width="60.16" height="60.16"/>
<rect x="929.14" y="980.6" transform="matrix(0.7071 -0.7071 0.7071 0.7071 -433.7065 974.2943)" class="st1" width="60.16" height="60.16"/>
<polygon class="st1" points="1002.05,1096.05 1001.76,1095.76 1001.47,1096.05 "/>
<polygon class="st1" points="916.39,1096.05 916.97,1096.05 916.68,1095.76 "/>
<polygon class="st1" points="831.31,1096.05 831.89,1096.05 831.6,1095.76 "/>
<polygon class="st1" points="746.23,1096.05 746.81,1096.05 746.52,1095.76 "/>
<polygon class="st1" points="1087.13,1096.05 1086.85,1095.76 1086.56,1096.05 "/>
<rect x="971.68" y="938.06" transform="matrix(0.7071 -0.7071 0.7071 0.7071 -391.1661 991.9141)" class="st1" width="60.16" height="60.16"/>
<polygon class="st1" points="1172.22,1096.05 1171.93,1095.76 1171.64,1096.05 "/>
<polygon class="st1" points="916.68,1095.76 916.97,1096.05 1001.47,1096.05 1001.76,1095.76 959.22,1053.22 "/>
<rect x="844.06" y="980.6" transform="matrix(0.7071 -0.7071 0.7071 0.7071 -458.626 914.1332)" class="st1" width="60.16" height="60.16"/>
<rect x="929.14" y="895.52" transform="matrix(0.7071 -0.7071 0.7071 0.7071 -373.5453 949.3758)" class="st1" width="60.16" height="60.16"/>
<rect x="886.6" y="938.06" transform="matrix(0.7071 -0.7071 0.7071 0.7071 -416.0857 931.754)" class="st1" width="60.16" height="60.16"/>
<polygon class="st1" points="1427.46,1096.05 1427.17,1095.76 1426.88,1096.05 "/>
<polygon class="st1" points="-47.36,897.44 151.25,1096.05 236.33,1096.05 -47.36,812.36 "/>
<polygon class="st1" points="661.15,1096.05 661.73,1096.05 661.44,1095.76 "/>
<polygon class="st1" points="-47.36,1067.61 -18.91,1096.05 66.17,1096.05 -47.36,982.52 "/>
<polygon class="st1" points="490.99,1096.05 491.57,1096.05 491.28,1095.76 "/>
<polygon class="st1" points="1257.3,1096.05 1257.01,1095.76 1256.72,1096.05 "/>
<polygon class="st1" points="576.07,1096.05 576.65,1096.05 576.36,1095.76 "/>
<polygon class="st1" points="1342.38,1096.05 1342.09,1095.76 1341.8,1096.05 "/>
<rect x="971.68" y="767.89" transform="matrix(0.7071 -0.7071 0.7071 0.7071 -270.8439 942.0751)" class="st1" width="60.16" height="60.16"/>
<rect x="1014.22" y="810.44" transform="matrix(0.7071 -0.7071 0.7071 0.7071 -288.4644 984.6174)" class="st1" width="60.16" height="60.16"/>
<rect x="886.6" y="767.89" transform="matrix(0.7071 -0.7071 0.7071 0.7071 -295.7633 881.9148)" class="st1" width="60.16" height="60.16"/>
<rect x="1141.85" y="938.06" transform="matrix(0.7071 -0.7071 0.7071 0.7071 -341.3269 1112.2375)" class="st1" width="60.16" height="60.16"/>
<rect x="1099.3" y="895.52" transform="matrix(0.7071 -0.7071 0.7071 0.7071 -323.7062 1069.696)" class="st1" width="60.16" height="60.16"/>
<rect x="1056.76" y="852.98" transform="matrix(0.7071 -0.7071 0.7071 0.7071 -306.0852 1027.1578)" class="st1" width="60.16" height="60.16"/>
<rect x="929.14" y="725.35" transform="matrix(0.7071 -0.7071 0.7071 0.7071 -253.223 899.5356)" class="st1" width="60.16" height="60.16"/>
<rect x="673.9" y="980.6" transform="matrix(0.7071 -0.7071 0.7071 0.7071 -508.4652 793.8109)" class="st1" width="60.16" height="60.16"/>
<polygon class="st1" points="831.6,1095.76 789.06,1053.22 746.52,1095.76 746.81,1096.05 831.31,1096.05 "/>
<rect x="844.06" y="810.44" transform="matrix(0.7071 -0.7071 0.7071 0.7071 -338.3037 864.294)" class="st1" width="60.16" height="60.16"/>
<rect x="716.44" y="938.06" transform="matrix(0.7071 -0.7071 0.7071 0.7071 -465.9248 811.4316)" class="st1" width="60.16" height="60.16"/>
<rect x="758.98" y="895.52" transform="matrix(0.7071 -0.7071 0.7071 0.7071 -423.3845 829.0524)" class="st1" width="60.16" height="60.16"/>
<rect x="1056.76" y="938.06" transform="matrix(0.7071 -0.7071 0.7071 0.7071 -366.2465 1052.0763)" class="st1" width="60.16" height="60.16"/>
<rect x="801.52" y="852.98" transform="matrix(0.7071 -0.7071 0.7071 0.7071 -380.8441 846.6732)" class="st1" width="60.16" height="60.16"/>
<rect x="1099.3" y="980.6" transform="matrix(0.7071 -0.7071 0.7071 0.7071 -383.8674 1094.6144)" class="st1" width="60.16" height="60.16"/>
<rect x="886.6" y="852.98" transform="matrix(0.7071 -0.7071 0.7071 0.7071 -355.9245 906.8353)" class="st1" width="60.16" height="60.16"/>
<rect x="801.52" y="938.06" transform="matrix(0.7071 -0.7071 0.7071 0.7071 -441.0052 871.5928)" class="st1" width="60.16" height="60.16"/>
<rect x="844.06" y="895.52" transform="matrix(0.7071 -0.7071 0.7071 0.7071 -398.4649 889.2136)" class="st1" width="60.16" height="60.16"/>
<rect x="971.68" y="852.98" transform="matrix(0.7071 -0.7071 0.7071 0.7071 -331.005 966.9935)" class="st1" width="60.16" height="60.16"/>
<rect x="1014.22" y="895.52" transform="matrix(0.7071 -0.7071 0.7071 0.7071 -348.6256 1009.537)" class="st1" width="60.16" height="60.16"/>
<rect x="929.14" y="810.44" transform="matrix(0.7071 -0.7071 0.7071 0.7071 -313.3842 924.4542)" class="st1" width="60.16" height="60.16"/>
<polygon class="st1" points="1001.76,1095.76 1002.05,1096.05 1086.56,1096.05 1086.85,1095.76 1044.3,1053.22 "/>
<polygon class="st1" points="916.68,1095.76 874.14,1053.22 831.6,1095.76 831.89,1096.05 916.39,1096.05 "/>
<rect x="758.98" y="980.6" transform="matrix(0.7071 -0.7071 0.7071 0.7071 -483.5456 853.972)" class="st1" width="60.16" height="60.16"/>
<polygon class="st1" points="1086.85,585.27 1710.56,-38.44 1625.48,-38.44 1044.3,542.73 "/>
<polygon class="st1" points="1171.93,670.35 1880.72,-38.44 1795.64,-38.44 1129.39,627.81 "/>
<polygon class="st1" points="1299.55,797.98 1975.81,121.71 1975.81,36.63 1257.01,755.43 "/>
<polygon class="st1" points="1214.47,712.89 1965.81,-38.44 1880.72,-38.44 1171.93,670.35 "/>
<polygon class="st1" points="1427.17,925.6 1975.81,376.96 1975.81,291.88 1384.63,883.06 "/>
<polygon class="st1" points="1384.63,883.06 1975.81,291.88 1975.81,206.79 1342.09,840.52 "/>
<polygon class="st1" points="1342.09,840.52 1975.81,206.79 1975.81,121.71 1299.55,797.98 "/>
<polygon class="st1" points="1965.81,-38.44 1214.47,712.89 1257.01,755.43 1975.81,36.63 1975.81,-38.44 "/>
<polygon class="st1" points="959.22,457.65 463.13,-38.44 378.05,-38.44 916.68,500.19 "/>
<polygon class="st1" points="1455.32,-38.44 463.13,-38.44 959.22,457.65 "/>
<polygon class="st1" points="1129.39,627.81 1795.64,-38.44 1710.56,-38.44 1086.85,585.27 "/>
<polygon class="st1" points="1044.3,542.73 1625.48,-38.44 1540.4,-38.44 1001.76,500.19 "/>
<polygon class="st1" points="1001.76,500.19 1540.4,-38.44 1455.32,-38.44 959.22,457.65 "/>
<polygon class="st1" points="1469.71,968.14 1975.81,462.04 1975.81,376.96 1427.17,925.6 "/>
<polygon class="st1" points="576.36,1095.76 533.82,1053.22 491.28,1095.76 491.57,1096.05 576.07,1096.05 "/>
<rect x="461.2" y="938.06" transform="matrix(0.7071 -0.7071 0.7071 0.7071 -540.6835 630.9481)" class="st1" width="60.16" height="60.16"/>
<rect x="418.66" y="980.6" transform="matrix(0.7071 -0.7071 0.7071 0.7071 -583.2239 613.3273)" class="st1" width="60.16" height="60.16"/>
<polygon class="st1" points="1342.09,1095.76 1342.38,1096.05 1426.88,1096.05 1427.17,1095.76 1384.63,1053.22 "/>
<polygon class="st1" points="1512.25,1010.68 1975.81,547.12 1975.81,462.04 1469.71,968.14 "/>
<polygon class="st1" points="1554.79,1053.22 1975.81,632.2 1975.81,547.12 1512.25,1010.68 "/>
<rect x="1439.63" y="980.6" transform="matrix(0.7071 -0.7071 0.7071 0.7071 -284.1888 1335.2627)" class="st1" width="60.16" height="60.16"/>
<polygon class="st1" points="916.68,500.19 378.05,-38.44 292.97,-38.44 874.14,542.73 "/>
<polygon class="st1" points="1469.71,1053.22 1427.17,1095.76 1427.46,1096.05 1511.96,1096.05 1512.25,1095.76 "/>
<rect x="503.74" y="895.52" transform="matrix(0.7071 -0.7071 0.7071 0.7071 -498.1432 648.5689)" class="st1" width="60.16" height="60.16"/>
<polygon class="st1" points="363.66,1053.22 324.02,1092.86 363.66,1053.22 -47.36,642.2 -47.36,727.28 321.41,1096.05 
	405.91,1096.05 406.2,1095.76 "/>
<polygon class="st1" points="491.28,1095.76 448.74,1053.22 406.2,1095.76 406.49,1096.05 490.99,1096.05 "/>
<polygon class="st1" points="405.91,1096.05 406.49,1096.05 406.2,1095.76 "/>
<polygon class="st1" points="874.14,542.73 292.97,-38.44 207.89,-38.44 831.6,585.27 "/>
<polygon class="st1" points="1511.96,1096.05 1512.54,1096.05 1512.25,1095.76 "/>
<polygon class="st1" points="1937.36,1096.05 1975.81,1057.6 1975.81,972.52 1852.28,1096.05 "/>
<polygon class="st1" points="1767.2,1096.05 1975.81,887.44 1975.81,802.36 1682.12,1096.05 "/>
<polygon class="st1" points="1594.43,1092.86 1554.79,1053.22 1512.25,1095.76 1512.54,1096.05 1597.04,1096.05 1975.81,717.28 
	1975.81,632.2 1554.79,1053.22 "/>
<polygon class="st1" points="703.98,712.89 -47.36,-38.44 -47.36,46.64 661.44,755.43 "/>
<polygon class="st1" points="746.52,670.35 37.72,-38.44 -47.36,-38.44 -47.36,-38.44 703.98,712.89 "/>
<polygon class="st1" points="789.06,627.81 122.8,-38.44 37.72,-38.44 746.52,670.35 "/>
<polygon class="st1" points="831.6,585.27 207.89,-38.44 122.8,-38.44 789.06,627.81 "/>
<polygon class="st1" points="661.44,755.43 -47.36,46.64 -47.36,131.72 618.9,797.98 "/>
<polygon class="st1" points="448.74,968.14 -47.36,472.04 -47.36,557.12 406.2,1010.68 "/>
<polygon class="st1" points="491.28,925.6 -47.36,386.96 -47.36,472.04 448.74,968.14 "/>
<polygon class="st1" points="406.2,1010.68 -47.36,557.12 -47.36,642.2 363.66,1053.22 "/>
<polygon class="st1" points="576.36,840.52 -47.36,216.8 -47.36,301.88 533.82,883.06 "/>
<polygon class="st1" points="533.82,883.06 -47.36,301.88 -47.36,386.96 491.28,925.6 "/>
<polygon class="st1" points="1171.93,1095.76 1172.22,1096.05 1256.72,1096.05 1257.01,1095.76 1214.47,1053.22 "/>
<polygon class="st1" points="618.9,797.98 -47.36,131.72 -47.36,216.8 576.36,840.52 "/>
<rect x="758.98" y="725.35" transform="matrix(0.7071 -0.7071 0.7071 0.7071 -303.0621 779.2133)" class="st1" width="60.16" height="60.16"/>
<rect x="673.9" y="810.44" transform="matrix(0.7071 -0.7071 0.7071 0.7071 -388.1429 743.9717)" class="st1" width="60.16" height="60.16"/>
<rect x="716.44" y="767.89" transform="matrix(0.7071 -0.7071 0.7071 0.7071 -345.6025 761.5925)" class="st1" width="60.16" height="60.16"/>
<rect x="801.52" y="682.81" transform="matrix(0.7071 -0.7071 0.7071 0.7071 -260.5218 796.8341)" class="st1" width="60.16" height="60.16"/>
<rect x="844.06" y="640.27" transform="matrix(0.7071 -0.7071 0.7071 0.7071 -217.9814 814.4549)" class="st1" width="60.16" height="60.16"/>
<rect x="886.6" y="597.73" transform="matrix(0.7071 -0.7071 0.7071 0.7071 -175.441 832.0757)" class="st1" width="60.16" height="60.16"/>
<rect x="588.82" y="895.52" transform="matrix(0.7071 -0.7071 0.7071 0.7071 -473.2236 708.73)" class="st1" width="60.16" height="60.16"/>
<rect x="503.74" y="980.6" transform="matrix(0.7071 -0.7071 0.7071 0.7071 -558.3041 673.4877)" class="st1" width="60.16" height="60.16"/>
<rect x="631.36" y="852.98" transform="matrix(0.7071 -0.7071 0.7071 0.7071 -430.6832 726.3509)" class="st1" width="60.16" height="60.16"/>
<rect x="929.14" y="555.19" transform="matrix(0.7071 -0.7071 0.7071 0.7071 -132.9007 849.6965)" class="st1" width="60.16" height="60.16"/>
<rect x="546.28" y="938.06" transform="matrix(0.7071 -0.7071 0.7071 0.7071 -515.7642 691.1101)" class="st1" width="60.16" height="60.16"/>
<rect x="1312.01" y="938.06" transform="matrix(0.7071 -0.7071 0.7071 0.7071 -291.4876 1232.561)" class="st1" width="60.16" height="60.16"/>
<rect x="1269.47" y="895.52" transform="matrix(0.7071 -0.7071 0.7071 0.7071 -273.8668 1190.0206)" class="st1" width="60.16" height="60.16"/>
<rect x="971.68" y="597.73" transform="matrix(0.7071 -0.7071 0.7071 0.7071 -150.5219 892.2351)" class="st1" width="60.16" height="60.16"/>
<rect x="1226.93" y="852.98" transform="matrix(0.7071 -0.7071 0.7071 0.7071 -256.2462 1147.479)" class="st1" width="60.16" height="60.16"/>
<rect x="1269.47" y="980.6" transform="matrix(0.7071 -0.7071 0.7071 0.7071 -334.028 1214.9403)" class="st1" width="60.16" height="60.16"/>
<polygon class="st1" points="661.44,1095.76 618.9,1053.22 576.36,1095.76 576.65,1096.05 661.15,1096.05 "/>
<rect x="1014.22" y="640.27" transform="matrix(0.7071 -0.7071 0.7071 0.7071 -168.1424 934.7763)" class="st1" width="60.16" height="60.16"/>
<rect x="1056.76" y="682.81" transform="matrix(0.7071 -0.7071 0.7071 0.7071 -185.763 977.3176)" class="st1" width="60.16" height="60.16"/>
<rect x="1141.85" y="767.89" transform="matrix(0.7071 -0.7071 0.7071 0.7071 -221.0049 1062.3972)" class="st1" width="60.16" height="60.16"/>
<rect x="1184.39" y="810.44" transform="matrix(0.7071 -0.7071 0.7071 0.7071 -238.625 1104.9409)" class="st1" width="60.16" height="60.16"/>
<rect x="546.28" y="852.98" transform="matrix(0.7071 -0.7071 0.7071 0.7071 -455.6028 666.1897)" class="st1" width="60.16" height="60.16"/>
<rect x="1099.3" y="725.35" transform="matrix(0.7071 -0.7071 0.7071 0.7071 -203.3845 1019.8549)" class="st1" width="60.16" height="60.16"/>
<rect x="801.52" y="597.73" transform="matrix(0.7071 -0.7071 0.7071 0.7071 -200.3606 771.9146)" class="st1" width="60.16" height="60.16"/>
<rect x="844.06" y="555.19" transform="matrix(0.7071 -0.7071 0.7071 0.7071 -157.8203 789.5353)" class="st1" width="60.16" height="60.16"/>
<rect x="886.6" y="512.65" transform="matrix(0.7071 -0.7071 0.7071 0.7071 -115.2797 807.1569)" class="st1" width="60.16" height="60.16"/>
<polygon class="st1" points="1257.01,1095.76 1257.3,1096.05 1341.8,1096.05 1342.09,1095.76 1299.55,1053.22 "/>
<rect x="929.14" y="470.11" transform="matrix(0.7071 -0.7071 0.7071 0.7071 -72.7395 824.7769)" class="st1" width="60.16" height="60.16"/>
<rect x="631.36" y="767.89" transform="matrix(0.7071 -0.7071 0.7071 0.7071 -370.5221 701.4313)" class="st1" width="60.16" height="60.16"/>
<rect x="588.82" y="810.44" transform="matrix(0.7071 -0.7071 0.7071 0.7071 -413.0624 683.8105)" class="st1" width="60.16" height="60.16"/>
<rect x="758.98" y="640.27" transform="matrix(0.7071 -0.7071 0.7071 0.7071 -242.901 754.2937)" class="st1" width="60.16" height="60.16"/>
<rect x="1014.22" y="555.19" transform="matrix(0.7071 -0.7071 0.7071 0.7071 -107.9808 909.8585)" class="st1" width="60.16" height="60.16"/>
<rect x="673.9" y="725.35" transform="matrix(0.7071 -0.7071 0.7071 0.7071 -327.9817 719.0521)" class="st1" width="60.16" height="60.16"/>
<rect x="716.44" y="682.81" transform="matrix(0.7071 -0.7071 0.7071 0.7071 -285.4413 736.6729)" class="st1" width="60.16" height="60.16"/>
<rect x="971.68" y="512.65" transform="matrix(0.7071 -0.7071 0.7071 0.7071 -90.3603 867.3173)" class="st1" width="60.16" height="60.16"/>
<rect x="1397.09" y="938.06" transform="matrix(0.7071 -0.7071 0.7071 0.7071 -266.568 1292.7223)" class="st1" width="60.16" height="60.16"/>
<rect x="1354.55" y="895.52" transform="matrix(0.7071 -0.7071 0.7071 0.7071 -248.9482 1250.1769)" class="st1" width="60.16" height="60.16"/>
<rect x="1056.76" y="597.73" transform="matrix(0.7071 -0.7071 0.7071 0.7071 -125.6016 952.3989)" class="st1" width="60.16" height="60.16"/>
<rect x="1354.55" y="980.6" transform="matrix(0.7071 -0.7071 0.7071 0.7071 -309.1092 1275.0963)" class="st1" width="60.16" height="60.16"/>
<rect x="1312.01" y="852.98" transform="matrix(0.7071 -0.7071 0.7071 0.7071 -231.3264 1207.6415)" class="st1" width="60.16" height="60.16"/>
<text transform="matrix(1 0 0 1 959.7529 524.5161)" class="st2 st3">.About__main__profile &gt; img</text>
<rect x="1099.3" y="640.27" transform="matrix(0.7071 -0.7071 0.7071 0.7071 -143.2229 994.9374)" class="st1" width="60.16" height="60.16"/>
<rect x="1141.85" y="682.81" transform="matrix(0.7071 -0.7071 0.7071 0.7071 -160.8432 1037.4799)" class="st1" width="60.16" height="60.16"/>
<rect x="1226.93" y="767.89" transform="matrix(0.7071 -0.7071 0.7071 0.7071 -196.0853 1122.5583)" class="st1" width="60.16" height="60.16"/>
<rect x="1184.39" y="725.35" transform="matrix(0.7071 -0.7071 0.7071 0.7071 -178.464 1080.0203)" class="st1" width="60.16" height="60.16"/>
<rect x="1269.47" y="810.44" transform="matrix(0.7071 -0.7071 0.7071 0.7071 -213.7061 1165.0988)" class="st1" width="60.16" height="60.16"/>
</svg>
